<svg xmlns="http://www.w3.org/2000/svg" xmlns:svg="http://www.w3.org/2000/svg" id="svg4186" width="682.667" height="682.667" preserveAspectRatio="xMidYMid meet" version="1.0" viewBox="0 0 512 512"><metadata id="metadata4188">Created by potrace 1.11, written by Peter Selinger 2001-2013</metadata><g id="g4190" fill="#000" stroke="none" transform="translate(0.000000,512.000000) scale(0.100000,-0.100000)" style="fill:#e73c00;fill-opacity:1"><path id="path4192" d="M1300 5106 c-438 -68 -809 -304 -1049 -667 -106 -159 -179 -336 -224 -538 -20 -94 -21 -119 -24 -1291 -3 -1040 -2 -1209 12 -1301 50 -344 189 -624 430 -864 238 -239 524 -382 860 -430 148 -22 2362 -22 2510 0 465 67 858 331 1101 738 57 96 125 261 153 372 47 182 51 247 51 843 l0 562 -1510 0 -1510 0 0 -465 0 -465 1046 0 1047 0 -5 -112 c-4 -90 -11 -127 -31 -180 -69 -181 -218 -315 -402 -363 -52 -13 -203 -15 -1195 -15 -992 0 -1143 2 -1195 15 -183 48 -330 180 -403 363 l-27 67 -3 1159 c-3 1279 -6 1209 61 1345 21 45 56 90 107 141 119 119 244 170 417 170 253 0 473 -162 555 -410 21 -61 22 -87 26 -467 l3 -403 459 0 459 0 3 403 c4 380 5 406 26 467 116 349 500 510 828 349 121 -60 227 -179 282 -317 l27 -67 3 -417 3 -418 465 0 465 0 -4 448 c-4 493 -8 528 -77 732 -212 636 -827 1057 -1495 1027 -340 -15 -652 -137 -912 -356 l-73 -61 -72 61 c-197 165 -425 276 -678 329 -132 27 -384 36 -510 16z" style="fill:#e73c00;fill-opacity:1"/></g></svg>